# xmcd
#
# Track frame offsets:
#	182
#	17590
#	28840
#	47160
#	64482
#	77035
#	92407
#	110752
#	124932
#	140072
#	159540
#	180765
#	198580
#	218025
#	248582
#	259452
#	289732
#
# Disc length: 4308 seconds
#
# Revision: 10
# Processed by: cddbd v1.5.2PL0 Copyright (c) Steve Scherf et al.
# Submitted via: EZCDAudioConverter 6.0.5.1
#
DISCID=f810d211
DTITLE=Dwight Yoakam - Dwight Live
DYEAR=1995
DGENRE=Country
TTITLE0=Little Sister
TTITLE1=It Only Hurts When I Cry
TTITLE2=The Heart That You Own
TTITLE3=This Time
TTITLE4=Streets Of Bakersfield
TTITLE5=Little Ways
TTITLE6=Please, Please Baby
TTITLE7=Nothing's Changed Here
TTITLE8=Lonesome Roads
TTITLE9=A Thousand Miles From Nowhere
TTITLE10=Wild Ride
TTITLE11=Two Doors Down
TTITLE12=Fast As You
TTITLE13=Long White Cadillac
TTITLE14=Miner's Prayer
TTITLE15=Rocky Road Blues
TTITLE16=Suspicious Minds
EXTD=
EXTT0=
EXTT1=
EXTT2=
EXTT3=
EXTT4=
EXTT5=
EXTT6=
EXTT7=
EXTT8=
EXTT9=
EXTT10=
EXTT11=
EXTT12=
EXTT13=
EXTT14=
EXTT15=
EXTT16=
PLAYORDER=
